<?xml version="1.0" encoding="utf-8"?>
<!-- Generator: Adobe Illustrator 23.0.0, SVG Export Plug-In . SVG Version: 6.00 Build 0)  -->
<svg version="1.1" id="Layer_1" xmlns="http://www.w3.org/2000/svg" xmlns:xlink="http://www.w3.org/1999/xlink" x="0px" y="0px"
	 viewBox="0 0 480 480" style="enable-background:new 0 0 480 480;" xml:space="preserve">
<style type="text/css">
	.st0{fill:#87C43B;}
	.st1{fill:#2B2B2B;}
</style>
<path class="st0" d="M89.9,130.5c22.7,0,41.2-18.4,41.2-41.2c0-22.7-18.4-41.2-41.2-41.2c-22.7,0-41.2,18.4-41.2,41.2
	C48.7,112,67.1,130.4,89.9,130.5z M89.9,64.1c13.9,0,25.2,11.3,25.2,25.2c0,13.9-11.3,25.2-25.2,25.2c-13.9,0-25.2-11.3-25.2-25.2
	C64.7,75.4,76,64.1,89.9,64.1z"/>
<path class="st1" d="M448.2,355l-3.1-80.6l15-20.7l-18.2-33.5l3.7-11.3l34.4-16.4v-33.4l-34.4-16.4l-3.7-11.3l18.2-33.5l-19.6-27
	l-37.5,7l-9.6-7l-5-37.8l-31.7-10.3l-26.2,27.7h-11.8l-26.2-27.7l-31.7,10.3l-1.5,11.8l-111-6.6l-7.5-7.5L138.6,14L108.6,1.6
	L95.3,12H84.5L71.1,1.6L41.1,14l-2.1,16.8l-7.7,7.7l-16.8,2.1l-12.4,30l10.4,13.4v10.8L2.2,108.1l9.9,23.9l-11,141.4
	c-0.2,1.8-0.4,3.6-0.4,5.4v0.3h0v0.6c0,16.2,8.2,31.3,21.7,40.2c13.6,8.8,30.7,10.2,45.5,3.6l47.3-19.7
	c-7.7,21.6,1.2,45.7,21.1,57.1l-73,23.5c-24.2,4.8-40.7,27.2-38.3,51.7c2.4,24.5,23,43.2,47.6,43.3h0.4L367.1,464l4.5,10.8l25.4,5.2
	l20.6-20l5.3-1.7l28.5,3.7l17.2-19.4l-7-27.9l1.1-5.4l17.4-22.9l-8.2-24.6L448.2,355z M275.2,45.2l12.5-4.1l24,25.4h25.6l24-25.4
	l12.6,4.1l4.5,34.6l20.7,15l34.4-6.4l7.7,10.7l-16.7,30.7l7.9,24.3l31.5,15v13.2l-31.5,15l-7.9,24.3l16.7,30.7l-7.7,10.7l-34.4-6.4
	l-20.7,15l-4.5,34.6l-12.6,4.1l-24-25.4h-25.6l-24,25.4l-12.5-4.1l-4.5-34.6l-20.7-15l-34.4,6.4l-7.7-10.7l16.7-30.7l-7.9-24.3
	l-31.5-15v-13.2l31.5-15l7.9-24.3l-16.7-30.7l7.7-10.7l34.4,6.4l20.7-15.1L275.2,45.2z M20.6,68l5.3-12.8l13-1.6l15.4-15.4l1.6-13
	L68.7,20L79,28h21.9l10.3-8l12.8,5.3l1.6,13l15.4,15.4l13,1.6l5.3,12.8l-8.1,10.3v21.9l8.1,10.3l-5.3,12.8l-13,1.6l-15.4,15.4
	l-1.6,13l-12.8,5.3l-10.3-8.1H79l-10.3,8.1l-12.8-5.3l-1.6-13l-15.4-15.5l-13-1.6l-5.3-12.8l8.1-10.3V78.4L20.6,68z M16.6,279.8
	l0.1-1.2c1.6-16.5,16.2-28.6,32.7-27.1s28.7,15.9,27.5,32.4c-1.3,16.5-15.6,28.9-32.1,27.8C28.2,310.5,15.6,296.3,16.6,279.8z
	 M160.4,287.7c17.7,0,32,14.3,32,32c0,17.7-14.3,32-32,32c-17.7,0-32-14.3-32-32C128.4,302,142.7,287.7,160.4,287.7z M40.5,431.5
	c0-12.4,7.3-23.7,18.5-28.9l7.7-2.5c11.8-2.1,23.9,2.6,31.1,12.2c7.2,9.6,8.5,22.5,3.2,33.3c-5.3,10.8-16.2,17.7-28.2,17.9h-0.4
	C54.8,463.4,40.5,449.1,40.5,431.5z M109.8,461.5c8.7-10.8,12.3-24.8,9.9-38.5c-2.5-13.6-10.7-25.6-22.6-32.6l78-25.1
	c16.9-5.3,29.5-19.4,32.8-36.7c3.3-17.3-3.1-35.1-16.8-46.3c-13.7-11.1-32.4-13.8-48.7-7l-48.5,20.2c7-20,0.1-42.1-17-54.6
	c-17.1-12.4-40.3-12.2-57.2,0.7l8-101.9l3.9,0.5l7.7,7.7l2.1,16.8l30,12.4l13.3-10.4h10.8l13.3,10.4l29.9-12.4l2.1-16.8l7.7-7.7
	l16.8-2.1l12.4-30l-10.4-13.3V83.9l10.4-13.3l-6.1-14.8l85.7,5.1l-1.3,10.1l-9.6,7l-37.5-7l-19.6,27l18.2,33.5l-3.7,11.2l-34.4,16.4
	v33.4l34.4,16.4l3.7,11.3L189,253.7l19.6,27l37.5-7l9.6,7l5,37.8l31.7,10.3l26.2-27.7h11.8l26.2,27.7l31.7-10.3l5-37.8l9.6-7
	l26.3,4.9l1.9,50l-2-4.9l-25.4-5.2l-20.7,20l-5.3,1.8l-28.5-3.7l-17.2,19.4l7,27.9l-1.1,5.4l-17.4,22.9l8.2,24.6l27.7,7.9l4.1,3.7
	v0.1L109.8,461.5z M447.8,402.4l-2.6,12.6l5.9,23.2l-6,6.8l-23.8-3l-12.2,4L392,462.6l-8.8-1.8l-9.2-22.1l-9.6-8.5l-23-6.6l-2.9-8.6
	l14.5-19l2.6-12.6l-5.9-23.2l6-6.8l23.8,3.1l12.2-4l17.2-16.7l8.8,1.8l9.2,22.1l9.6,8.5l23,6.5l2.9,8.6L447.8,402.4z"/>
<path class="st0" d="M64.5,279.7c0,8.8-7.2,16-16,16s-16-7.2-16-16s7.2-16,16-16S64.5,270.8,64.5,279.7z"/>
<path class="st0" d="M176.4,319.6c0,8.8-7.2,16-16,16s-16-7.2-16-16c0-8.8,7.2-16,16-16S176.4,310.8,176.4,319.6z"/>
<path class="st0" d="M88.5,431.5c0,8.8-7.2,16-16,16s-16-7.2-16-16c0-8.8,7.2-16,16-16S88.5,422.6,88.5,431.5z"/>
<path class="st0" d="M400.1,359.6c-22.1,0-40,17.9-40,40c0,22.1,17.9,40,40,40c22.1,0,40-17.9,40-40
	C440,377.5,422.1,359.6,400.1,359.6z M400.1,423.5c-13.2,0-24-10.7-24-24s10.7-24,24-24s24,10.7,24,24S413.3,423.5,400.1,423.5z"/>
<path class="st0" d="M320.2,255.7c44.1,0,79.9-35.8,79.9-79.9s-35.8-79.9-79.9-79.9s-79.9,35.8-79.9,79.9
	C240.3,219.9,276.1,255.6,320.2,255.7z M320.2,111.9c35.3,0,63.9,28.6,63.9,63.9s-28.6,63.9-63.9,63.9c-35.3,0-63.9-28.6-63.9-63.9
	C256.3,140.5,284.9,111.9,320.2,111.9z"/>
<path class="st0" d="M320.2,223.7c26.5,0,47.9-21.5,47.9-47.9s-21.5-47.9-47.9-47.9c-26.5,0-47.9,21.5-47.9,47.9
	C272.3,202.3,293.7,223.7,320.2,223.7z M320.2,143.8c17.7,0,32,14.3,32,32s-14.3,32-32,32c-17.7,0-32-14.3-32-32
	S302.5,143.8,320.2,143.8z"/>
<path class="st0" d="M432.1,24c0,13.2,10.7,24,24,24s24-10.7,24-24S469.3,0,456,0S432.1,10.7,432.1,24z M464,24c0,4.4-3.6,8-8,8
	s-8-3.6-8-8s3.6-8,8-8S464,19.6,464,24z"/>
<path class="st0" d="M224.3,16c0,8.8-7.2,16-16,16c-8.8,0-16-7.2-16-16s7.2-16,16-16C217.2,0,224.3,7.2,224.3,16z"/>
</svg>
