<?xml version="1.0" encoding="utf-8"?>
<!-- Generator: Adobe Illustrator 23.0.0, SVG Export Plug-In . SVG Version: 6.00 Build 0)  -->
<svg version="1.1" id="Layer_1" xmlns="http://www.w3.org/2000/svg" xmlns:xlink="http://www.w3.org/1999/xlink" x="0px" y="0px"
	 viewBox="0 0 496 496" style="enable-background:new 0 0 496 496;" xml:space="preserve">
<style type="text/css">
	.st0{fill:#87C43B;}
	.st1{fill:#2B2B2B;}
</style>
<path class="st0" d="M201.4,128.1h-34.6L199.5,352h-7.5c-13.2,0-24,10.8-24,24v24h160v-24c0-13.2-10.8-24-24-24h-7.5l32.7-223.9
	h-34.6c-0.1-5.2-1.4-11.1-2.7-16.9c-1.1-4.8-2.9-12.9-2.6-14.5c1.6-1.6,9-3.9,13.5-5.3c11.8-3.6,25.2-7.8,25.2-19.4
	c0-11.6-13.4-15.7-25.2-19.4c-4.4-1.4-11.9-3.7-13.1-4.6c-0.7-2.3,1.1-10.4,2.2-15.2c2.8-12.5,5.7-25.5-3.9-31.1
	c-9.5-5.6-19,3.3-28.2,11.9c-3.7,3.5-9.8,9.2-11.6,9.7c-2.4-0.5-8.5-6.3-12.2-9.7C227,5,217.5-3.9,208,1.8
	c-9.6,5.7-6.7,18.6-3.9,31.1c1.1,4.8,2.9,12.9,2.6,14.5c-1.6,1.6-9,3.9-13.5,5.3c-11.8,3.6-25.2,7.8-25.2,19.4
	c0,11.6,13.4,15.7,25.2,19.4c4.4,1.4,11.9,3.7,13.1,4.6c0.7,2.3-1.1,10.4-2.2,15.2C202.8,117,201.5,122.9,201.4,128.1z M304,368
	c4.4,0,8,3.6,8,8v8h-128v-8c0-4.4,3.6-8,8-8H304z M271.4,144.1L256.2,352h-13.7l-17.8-207.9H271.4z M238.7,128.1
	c3.5-3.2,7.6-7,9.1-7.4c1.9,0.4,6.1,4.1,9.6,7.4H238.7z M310.8,144.1L280.4,352h-8.1l15.2-207.9H310.8z M198,76.2
	c-3.4-1.1-8.5-2.6-11.7-4.1c3.2-1.5,8.3-3,11.7-4.1c10-3.1,18.7-5.8,22.4-12.3c3.8-6.6,1.6-16.2-0.7-26.3c-0.7-3.1-1.7-7.5-2.2-10.9
	c2.5,2,5.5,4.8,7.6,6.8c7.7,7.2,14.9,14.1,22.9,14.1c7.9,0,15.2-6.8,22.9-14.1c2.1-2,5.1-4.8,7.6-6.8c-0.5,3.4-1.5,7.8-2.2,10.9
	c-2.3,10.1-4.4,19.7-0.7,26.3c3.7,6.5,12.4,9.2,22.4,12.3c3.4,1.1,8.5,2.6,11.7,4.1c-3.2,1.5-8.3,3-11.7,4.1
	c-10,3.1-18.7,5.8-22.4,12.3c-3.8,6.6-1.6,16.2,0.7,26.3c0.7,3.1,1.7,7.5,2.2,10.9c-2.5-2-5.5-4.8-7.6-6.8
	c-7.7-7.2-14.9-14.1-22.9-14.1c-7.9,0-15.2,6.8-22.9,14.1c-2.1,2-5.1,4.8-7.6,6.8c0.5-3.4,1.5-7.8,2.1-10.9
	c2.3-10.1,4.4-19.7,0.7-26.3C216.6,81.9,208,79.3,198,76.2z M208.7,144.1L226.5,352h-10.8l-30.4-207.9H208.7z"/>
<path class="st0" d="M248,96.1c13.2,0,24-10.8,24-24c0-13.2-10.8-24-24-24c-13.2,0-24,10.8-24,24C224,85.3,234.8,96.1,248,96.1z
	 M248,64.1c4.4,0,8,3.6,8,8c0,4.4-3.6,8-8,8c-4.4,0-8-3.6-8-8C240,67.7,243.6,64.1,248,64.1z"/>
<path class="st1" d="M481.7,349.3c9.6-10.7,15.1-25.1,14.2-40.5l-2.3-39.9l-8,0.5c-1.6,0.1-3.2,0.3-4.8,0.5c0,0,0,0,0,0
	c4.9-14.1,4.1-29.3-2.5-42.8L461,191l-7.2,3.5c-1.5,0.7-2.9,1.5-4.3,2.3c0,0,0,0,0-0.1c-0.9-14.9-7.5-28.6-18.6-38.6L401,131.5
	l-5.3,6c-13.6,15.2-17.2,35.8-11.6,54c-4.5-0.9-9.1-1.2-13.7-1c-14.9,0.9-28.6,7.5-38.6,18.6l-5.3,6l29.9,26.6
	c2.3,2.1,4.8,3.8,7.4,5.5l13.8,28.5c1.4,2.8,3,5.4,4.8,7.9l1.8,31.6c0.2,3.1,0.7,6.1,1.4,9.1l-10.4,29.9c-1,2.9-1.7,5.9-2.2,9
	l-21,23.6c-9.9,11.2-15,25.5-14.1,40.5c0.6,11.1,4.5,21.5,10.9,30.2c-19,9.1-54.9,22.6-100.6,22.6c-45.8,0-81.6-13.5-100.6-22.6
	c6.5-8.7,10.3-19.1,10.9-30.2c0.9-14.9-4.2-29.3-14.1-40.5l-21-23.6c-0.5-3-1.2-6-2.2-9l-10.4-29.9c0.7-3,1.2-6.1,1.4-9.2l1.8-31.6
	c1.8-2.5,3.4-5.1,4.8-7.9l13.7-28.5c2.6-1.6,5.1-3.4,7.5-5.5l29.8-26.6l-5.3-6c-10-11.2-23.7-17.8-38.6-18.6
	c-4.6-0.3-9.2,0.1-13.7,1c5.7-18.2,2-38.8-11.6-54l-5.3-6l-29.8,26.6c-11.2,10-17.8,23.7-18.6,38.6v0.1c-1.4-0.8-2.8-1.6-4.3-2.3
	l-7.2-3.5l-17.4,36c-6.5,13.5-7.4,28.7-2.5,42.8c0,0,0,0,0,0c-1.6-0.2-3.2-0.4-4.8-0.5l-8-0.4l-2.3,39.9
	c-0.9,15.4,4.6,29.8,14.2,40.5c-1.6,0.4-3.1,0.8-4.7,1.4l-7.5,2.6L15.3,391c5.1,14.6,15.7,25.7,28.6,32c-1.3,1-2.6,2-3.8,3.1l-6,5.3
	l26.6,29.9c11,12.4,26.4,18.7,41.8,18.7c10.7,0,21.4-3.2,30.8-9.4l0.5,0.6l1.8-1.6c18.9,9.8,59.1,26.5,112.4,26.5
	c53.3,0,93.5-16.8,112.4-26.5l1.8,1.6l0.5-0.6c9.4,6.2,20,9.4,30.8,9.4c15.4,0,30.8-6.3,41.8-18.7l26.6-29.9l-6-5.3
	c-1.2-1.1-2.5-2.1-3.8-3.1c12.9-6.2,23.5-17.4,28.6-32l13.2-37.8l-7.5-2.6C484.9,350.1,483.3,349.7,481.7,349.3z M124.8,206.5
	c8,0.5,15.4,3.2,21.6,7.9l-17.3,15.4c-1.8,1.6-3.7,2.9-5.7,4.2c-12.1-4.4-25.1-4.5-37.4-0.2c-4.4,1.5-8.5,3.6-12.3,6.1
	c-0.1-1.1-0.2-2.1-0.3-3.2l22.5-20.1C103.9,209.4,114.2,205.9,124.8,206.5z M75.9,170.1l17.3-15.4c9.4,16.1,6.5,37.1-7.9,50
	l-17.2,15.3c-0.6-1.2-1.1-2.3-1.8-3.4C59.2,201,62.5,182,75.9,170.1z M68.4,269.2c4.6-9.6,12.8-16.9,22.8-20.4
	c7.5-2.6,15.5-2.9,23-1l-10.1,20.9c-1,2.1-2.3,4.1-3.7,6c-12.9,0.6-25,5.5-34.7,14.1c-3.5,3.1-6.5,6.6-9,10.4c-0.5-1-1-1.9-1.5-2.8
	L68.4,269.2z M94,414.5c-1-0.3-2-0.7-3.1-0.9l-10-28.5c-3.5-10.1-2.9-20.9,1.7-30.6c3.5-7.2,8.9-13,15.6-17l7.6,21.9
	c0.8,2.3,1.3,4.6,1.7,6.9c-8.7,9.5-13.8,21.5-14.5,34.5C92.8,405.5,93.1,410.1,94,414.5z M68.3,347.6c-2,4.2-3.4,8.6-4.4,13
	c-0.8-0.7-1.6-1.4-2.5-2l1.7-30.2c0.6-10.7,5.3-20.5,13.3-27.6c5.9-5.3,13.2-8.6,20.9-9.7L96,314.3c-0.1,2.4-0.6,4.7-1.1,7
	C83.3,326.7,74,335.9,68.3,347.6z M32.1,233.9L42.2,213c3.8,2.9,7,6.5,9.5,10.6c0.8,1.7,1.7,3.3,2.6,5c0.5,1,1,2.1,1.4,3.1
	c3.5,10.1,2.9,20.9-1.8,30.6L44,283c-1.1-0.9-2.1-1.8-3.2-2.7c-4.6-4.3-8.2-9.7-10.3-15.8C26.9,254.4,27.5,243.6,32.1,233.9z
	 M17.5,286.5c4.5,1.2,8.7,3.2,12.4,5.7c1.6,1.5,3.4,2.9,5.2,4.2c8,7.8,12.8,18.9,12.1,31l-1.3,23c-1-0.4-2.1-0.7-3.1-1
	c-16.3-5.8-27.6-21.7-26.6-39.8L17.5,286.5z M30.4,385.8l-7.6-21.9c4.8-0.7,9.7-0.4,14.3,0.7c1.8,0.7,3.7,1.2,5.6,1.7
	c10.5,4.1,19.3,12.6,23.3,24.1l4.4,12.6l3.2,9.1c-1.1,0.1-2.2,0.1-3.4,0.3C52.9,413.2,36.3,402.9,30.4,385.8z M72.6,450.6
	l-15.4-17.3c16.1-9.4,37.1-6.5,50,8l15.4,17.3C106.5,467.9,85.5,465,72.6,450.6z M134.5,447.9l-15.4-17.3
	c-7.1-8-10.7-18.2-10.1-28.9c0.5-8,3.2-15.4,7.9-21.7l15.4,17.3c7.1,8,10.7,18.2,10.1,28.9C141.9,434.3,139.2,441.7,134.5,447.9z
	 M441.4,229c1.2-1.9,2.2-3.8,3.1-5.8c2.5-3.8,5.6-7.3,9.3-10.1l10.1,20.9c4.6,9.6,5.3,20.5,1.8,30.6c-2.1,6.2-5.7,11.5-10.3,15.9
	c-1.1,0.8-2.2,1.7-3.2,2.7l-10-20.8c0,0,0,0,0-0.1C436.8,251.3,437,239.3,441.4,229z M402.9,154.7l17.3,15.4
	c13.5,12,16.8,31.2,9.4,46.8c-0.6,1-1.1,2-1.6,3l-17.2-15.3C396.4,191.8,393.5,170.7,402.9,154.7z M372.7,234
	c-2-1.2-3.9-2.6-5.7-4.2l-17.3-15.4c6.2-4.7,13.7-7.4,21.6-7.9c10.6-0.6,20.9,3,28.9,10.1l22.6,20.1c-0.2,1.1-0.2,2.1-0.3,3.2
	c-3.8-2.5-7.9-4.6-12.3-6.1C397.8,229.5,384.7,229.6,372.7,234z M381.8,247.8c7.5-1.9,15.5-1.6,23,1c10.1,3.5,18.2,10.7,22.8,20.3
	c0,0,0,0,0,0l13.1,27.2c-0.6,0.9-1,1.9-1.5,2.8c-2.6-3.8-5.5-7.3-9-10.4c-9.7-8.7-21.8-13.6-34.7-14.1c-1.4-1.9-2.6-3.9-3.7-6
	L381.8,247.8z M388.5,366.3c0.4-2.3,0.9-4.6,1.7-6.9l7.6-21.9c6.7,4,12.1,9.8,15.6,17c4.6,9.6,5.3,20.5,1.7,30.6l-9.9,28.5
	c-1,0.3-2.1,0.6-3.1,0.9c0.8-4.5,1.2-9.1,1-13.7C402.3,387.8,397.2,375.8,388.5,366.3z M401.2,321.2c-0.5-2.3-1-4.6-1.1-7l-1.3-23.2
	c7.7,1.1,14.9,4.4,20.9,9.7c8,7.1,12.7,16.9,13.3,27.6l0.1,1.4l1.6,28.7c-0.9,0.6-1.7,1.3-2.5,2c-0.9-4.5-2.3-8.8-4.4-13
	C422.1,335.9,412.8,326.7,401.2,321.2z M361.6,447.9c-4.7-6.2-7.4-13.7-7.9-21.6c-0.6-10.7,3-20.9,10.1-28.9l15.4-17.3
	c4.7,6.2,7.4,13.7,7.9,21.7c0.6,10.7-3,20.9-10.1,28.9L361.6,447.9z M423.5,450.6c-12.9,14.4-33.9,17.3-50,8l15.4-17.3
	c12.8-14.4,33.9-17.3,50-8L423.5,450.6z M465.7,385.8c-5.9,17-22.3,27.4-39.5,26.7c-1.2-0.2-2.4-0.2-3.6-0.3l7.6-21.8
	c4-11.5,12.8-20,23.3-24.1c1.9-0.5,3.8-1,5.6-1.7c4.6-1.1,9.4-1.4,14.3-0.7L465.7,385.8z M453.5,349.5c-1.1,0.3-2.2,0.7-3.2,1
	l-1.3-23c-0.7-12.1,4.1-23.2,12.1-31c1.8-1.3,3.5-2.7,5.2-4.2c3.7-2.6,7.9-4.5,12.4-5.7l1.3,23.2C481,327.8,469.7,343.6,453.5,349.5
	z"/>
</svg>
